<svg width="32" height="32" viewBox="0 0 32 32" fill="none" xmlns="http://www.w3.org/2000/svg">
  <rect width="32" height="32" rx="8" fill="#059669"/>
  <g transform="translate(6 6) scale(0.8333)" stroke="#ffffff" stroke-width="2.25" stroke-linecap="round" stroke-linejoin="round">
    <path d="m15 12-9.373 9.373a1 1 0 0 1-3.001-3L12 9"/>
    <path d="m18 15 4-4"/>
    <path d="m21.5 11.5-1.914-1.914A2 2 0 0 1 19 8.172v-.344a2 2 0 0 0-.586-1.414l-1.657-1.657A6 6 0 0 0 12.516 3H9l1.243 1.243A6 6 0 0 1 12 8.485V10l2 2h1.172a2 2 0 0 1 1.414.586L18.5 14.5"/>
  </g>
</svg>
